<?xml version="1.0" encoding="UTF-8" standalone="no"?>
<svg
   version="1.1"
   style="display: block;"
   viewBox="0 0 2048 2026"
   width="1420"
   height="1405"
   preserveAspectRatio="none"
   id="svg48"
   sodipodi:docname="fijlkam_judo_logo.svg"
   inkscape:version="1.4 (e7c3feb100, 2024-10-09)"
   xmlns:inkscape="http://www.inkscape.org/namespaces/inkscape"
   xmlns:sodipodi="http://sodipodi.sourceforge.net/DTD/sodipodi-0.dtd"
   xmlns="http://www.w3.org/2000/svg"
   xmlns:svg="http://www.w3.org/2000/svg">
  <defs
     id="defs48" />
  <sodipodi:namedview
     id="namedview48"
     pagecolor="#ffffff"
     bordercolor="#000000"
     borderopacity="0.25"
     inkscape:showpageshadow="2"
     inkscape:pageopacity="0.0"
     inkscape:pagecheckerboard="0"
     inkscape:deskcolor="#d1d1d1"
     inkscape:zoom="5.2029212"
     inkscape:cx="723.15144"
     inkscape:cy="147.32108"
     inkscape:window-width="1920"
     inkscape:window-height="1104"
     inkscape:window-x="1920"
     inkscape:window-y="0"
     inkscape:window-maximized="1"
     inkscape:current-layer="svg48" />
  <path
     fill="rgb(1,61,164)"
     d="M 680.096 874.436 C 679.136 843.987 679.793 810.686 679.799 780.07 L 679.793 615.95 L 679.761 512.968 C 679.761 492.533 679.09 466.407 681.067 446.512 C 683.52 423.836 689.163 401.619 697.829 380.521 C 710.57 349.916 733.12 318.836 757.81 296.734 C 781.522 275.506 811.847 259.819 839.556 243.937 L 924.269 195.027 C 947.689 181.18 971.241 167.559 994.923 154.167 C 1004.76 148.541 1020.55 138.628 1030.12 134.661 C 1031.25 135.262 1032.37 135.863 1033.5 136.464 C 1077.8 161.57 1121.89 187.03 1165.78 212.841 C 1196.46 230.499 1227.43 248.273 1258.06 266.062 C 1260.89 267.706 1262.3 268.405 1263.04 270.992 L 1260.64 272.32 C 1249.83 278.626 1228.87 291.743 1218.43 296.723 C 1211.79 301.14 1198.37 308.739 1191.2 312.379 C 1138.56 343.386 1085.67 373.948 1032.52 404.063 C 976.14 436.554 915.141 460.137 913.001 536.293 C 912.621 549.814 912.861 563.356 912.886 576.879 L 913.02 654.959 L 912.954 884.728 C 912.944 924.585 913.766 967.467 912.823 1006.98 L 889.115 992.566 C 876.888 987.149 848.937 969.534 836.404 962.29 L 733.174 903.187 C 716.945 893.792 697.007 881.103 680.096 874.436 z"
     id="path2"
     transform="translate(0,0)" />
  <path
     transform="translate(0,0)"
     fill="rgb(1,61,164)"
     d="M 1146.95 338.851 C 1167.32 351.758 1188.52 363.065 1209.42 375.099 L 1309.13 432.516 C 1328.88 443.696 1361.4 460.998 1379.68 473.53 C 1379.94 479.777 1379.81 483.461 1379.39 489.696 L 1379.41 770.685 L 1379.42 845.521 C 1379.42 868.794 1380.02 891.183 1376.1 914.584 C 1370.37 948.699 1356.53 980.871 1337.04 1009.43 C 1335.43 1011.78 1331.17 1017.54 1329.05 1019.25 C 1324.45 1024.73 1319.79 1030.17 1315.08 1035.55 C 1306.19 1044.5 1286.54 1063.67 1275.44 1068.66 C 1262.76 1076.47 1244.7 1087.99 1231.4 1094.53 C 1226.44 1098.36 1215.88 1103.87 1210.12 1107.21 C 1193.59 1116.81 1176.9 1126.07 1160.02 1135.04 C 1143.78 1143.66 1126.31 1155.64 1110.08 1163.76 C 1097.14 1172.7 1077.45 1182.86 1063.61 1191.17 C 1055.73 1195.91 1036.89 1206.73 1029.14 1210.03 C 1023.85 1207.11 1017.42 1203.75 1012.47 1200.46 C 974.177 1178.99 936.3 1156.02 898.027 1134.76 C 875.692 1122.46 853.525 1109.85 831.534 1096.94 C 820.311 1090.49 805.48 1082.75 795.404 1075.43 C 805.595 1067.86 833.467 1052.59 845.285 1046.06 C 868.356 1033.31 890.111 1020.1 912.823 1006.98 C 926.378 998.193 946.099 987.685 960.455 979.443 L 1043.89 931.458 C 1088.68 906.027 1132.74 886.394 1144.14 830.016 C 1147.67 812.603 1146.5 791.564 1146.52 773.705 L 1146.37 690.547 L 1146.38 473.166 C 1146.36 429.091 1145.52 382.7 1146.95 338.851 z"
     id="path5" />
  <path
     fill="rgb(1,61,164)"
     d="M 1326.28 1385.29 C 1338.82 1384.96 1352.4 1385.23 1365.02 1385.27 C 1370.03 1385.45 1372.26 1385.41 1375.84 1389.49 C 1382.2 1396.75 1386.58 1408.93 1390.47 1417.98 L 1394.03 1425.93 C 1401.74 1412.63 1405.9 1396.31 1416.48 1385.34 C 1424.15 1385.19 1457.52 1384.06 1463.57 1386.15 C 1499.67 1424.12 1496.12 1512.38 1496.09 1561.78 L 1496.21 1652.67 C 1488.85 1652.75 1452.8 1653.73 1448.81 1651.84 L 1448.29 1650.16 C 1446.59 1593.2 1450.21 1534.78 1446.43 1477.81 C 1445.97 1470.91 1440.48 1434.35 1432.3 1434.51 L 1429.58 1437.95 C 1422.62 1455.5 1420.91 1465.4 1418.74 1484.32 C 1419.31 1492.09 1417.77 1520.65 1417.75 1530.99 L 1417.77 1652.8 L 1370.28 1652.69 C 1370.92 1622.95 1369.99 1590.12 1370.3 1560.22 C 1370.59 1531.71 1373.62 1453.02 1355.44 1433.05 C 1353.11 1435.27 1353.4 1435.23 1351.62 1437.99 C 1337.14 1475.12 1340.22 1522.85 1340.22 1563 L 1340.17 1652.81 C 1329.27 1652.87 1303.47 1653.64 1293.79 1652.46 C 1292.27 1649.34 1292.82 1651 1293.03 1646.9 C 1292.44 1641.03 1292.14 1625.35 1292.48 1619.49 C 1295.95 1559.22 1279.5 1428.34 1326.28 1385.29 z"
     id="path12"
     transform="translate(0,0)" />
  <path
     fill="#013da4"
     d="m 1177.74,1385.32 c 15.43,-0.13 30.86,-0.08 46.28,0.16 18.89,16.48 33,69.6 36.76,94.77 3.61,29.27 3.19,50.23 3.13,79.75 -0.06,30.65 -0.25,62.03 0.14,92.65 -12.86,0.11 -36.15,0.85 -48.16,-0.38 0.12,-24.45 0.06,-48.9 -0.18,-73.34 -9.6,0.07 -20.1,0.39 -29.6,-0.24 l -0.08,74.03 c -14.76,0.03 -30.64,0.34 -45.31,-0.15 -0.75,-0.03 -1.43,-0.43 -2.14,-0.68 -0.9069,-72.877 -5.2248,-147.4414 13.91,-218.43 5.28,-16.68 14.63,-36.37 25.25,-48.14 z"
     id="path17"
     sodipodi:nodetypes="ccccccccccccc" />
  <path
     fill="#fefffe"
     d="m 1200.78,1431.41 c 14.74,29.81 14.94,71.79 15.28,104.86 -6.08,0.03 -22.8744,-0.2203 -29.02,-0.42 -0.1331,-36.1533 -2.7257,-75.1614 13.74,-104.44 z"
     id="path20"
     sodipodi:nodetypes="cccc" />
  <path
     fill="#17407d"
     d="m 1193.45,1443.85 c 0,0 -7.5449,6.2423 0,0 z"
     id="path21"
     sodipodi:nodetypes="cc" />
  <path
     fill="rgb(1,61,164)"
     d="M 1066.13 1385.54 C 1077.76 1384.84 1092.87 1385.16 1104.75 1385.09 C 1109.14 1385.36 1113.73 1385.56 1118.08 1385.92 C 1115.57 1398.42 1111.06 1412.35 1107.43 1424.79 L 1091.21 1480.9 C 1088.44 1490.55 1082.92 1508.12 1082.05 1517.65 C 1089.69 1546.16 1098.86 1575.71 1107.3 1604.05 C 1110.95 1616.34 1117.34 1640.66 1121.65 1652.1 C 1107.35 1653.07 1081.31 1653.22 1066.6 1652.68 C 1059.11 1618.97 1048.21 1579.54 1041.89 1546.39 C 1040.2 1544.32 1039.31 1543.27 1037.85 1540.98 C 1034.07 1554.26 1036.42 1611.93 1035.71 1629.38 C 1035.47 1635.26 1036.46 1646.41 1035.54 1652.34 C 1024.76 1652.84 998.385 1653.55 988.196 1652.52 C 985.891 1650.15 986.64 1650.08 986.217 1645.82 C 987.046 1641.18 986.472 1588.6 986.502 1580.14 C 986.132 1515.18 986.266 1450.22 986.902 1385.26 L 1024.03 1385.27 C 1027.65 1385.25 1031.67 1384.8 1034.71 1386.46 C 1035.79 1394.44 1035.14 1411.41 1035.12 1420.26 L 1035.06 1486.57 L 1037.9 1495.31 C 1039.07 1491.15 1039.04 1490.12 1042.23 1487.24 C 1044.08 1476.76 1047.54 1464 1050.02 1453.48 L 1066.13 1385.54 z"
     id="path22"
     transform="translate(0,0)" />
  <path
     transform="translate(0,0)"
     fill="rgb(4,152,70)"
     d="M 680.031 67.1094 C 752.087 65.731 824.786 67.8862 896.905 66.8698 C 918.413 66.5666 945.986 65.8783 967.154 67.8408 C 966.061 70.1757 964.89 70.0788 961.986 71.5932 C 956.52 76.341 825.453 151.883 820.065 153.601 C 812.506 158.926 802.758 164.252 794.579 168.819 C 756.349 190.166 718.646 213.907 679.758 233.94 L 679.911 218.51 C 678.64 171.112 679.593 114.861 680.031 67.1094 z"
     id="path28" />
  <path
     transform="translate(0,0)"
     fill="rgb(202,44,45)"
     d="M 1089.72 67.9065 C 1152.57 66.6614 1215.44 66.3117 1278.3 66.8574 C 1308.03 66.8806 1351.01 65.7552 1380.01 68.0005 C 1379.97 73.1818 1380.07 76.6282 1379.21 81.7864 L 1379.06 182.677 C 1379.06 196.825 1378.47 219.81 1379.98 233.445 C 1374.22 231.134 1371.39 229.954 1365.94 226.886 C 1352.38 218.122 1334.15 208.477 1319.9 200.215 L 1211.07 137.992 L 1135.24 93.6989 C 1120.59 85.1101 1104.81 75.3953 1089.72 67.9065 z"
     id="path30" />
  <path
     transform="translate(0,0)"
     fill="rgb(23,64,125)"
     d="M 1210.64 1767.09 C 1252.33 1763.61 1288.97 1794.55 1292.52 1836.23 C 1296.08 1877.92 1265.21 1914.61 1223.54 1918.25 C 1181.74 1921.9 1144.93 1890.93 1141.36 1849.13 C 1137.79 1807.33 1168.83 1770.57 1210.64 1767.09 z"
     id="path32" />
  <path
     transform="translate(0,0)"
     fill="rgb(254,255,254)"
     d="M 1212.01 1781.68 C 1245.58 1779.07 1274.97 1804.02 1277.84 1837.57 C 1280.71 1871.12 1256 1900.71 1222.47 1903.85 C 1188.57 1907.02 1158.57 1881.96 1155.67 1848.03 C 1152.76 1814.11 1178.06 1784.31 1212.01 1781.68 z"
     id="path33" />
  <path
     transform="translate(0,0)"
     fill="rgb(1,61,164)"
     d="M 563.118 1385.21 L 639.942 1385.24 C 644.625 1385.28 649.742 1385.21 654.379 1385.46 C 654.349 1399.81 654.068 1414.94 654.339 1429.23 C 640.665 1429.3 625.414 1429.73 611.872 1429.4 C 611.559 1445.5 611.467 1461.6 611.595 1477.7 L 611.595 1495.72 C 625.825 1495.78 640.635 1495.63 654.813 1495.96 C 654.474 1510.38 654.152 1523.89 654.589 1538.3 C 646.164 1538.28 618.076 1537.83 611.022 1539.42 C 611.924 1546.95 611.685 1554.68 611.773 1562.26 C 612.122 1592.35 611.312 1622.61 611.933 1652.68 L 591.436 1652.38 C 582.093 1652.85 572.422 1652.72 563.045 1652.73 L 563.118 1385.21 z"
     id="path34" />
  <path
     transform="translate(0,0)"
     fill="rgb(23,64,125)"
     d="M 1003.2 1769.23 C 1027.45 1766.4 1051.92 1765.36 1075.48 1772.97 C 1119.75 1787.26 1131.95 1829.39 1117.57 1870.95 C 1114.27 1879.97 1109.17 1888.23 1102.6 1895.24 C 1074.96 1922.35 1038.06 1918.15 1003.06 1916.74 L 1003.2 1769.23 z"
     id="path37" />
  <path
     fill="rgb(254,255,254)"
     d="M 1028.82 1781.43 C 1048.88 1780.43 1075.63 1783.67 1090.51 1798.19 C 1117.6 1824.63 1111.46 1866.61 1085.53 1890.58 C 1064.43 1905.71 1043.53 1905.52 1019 1904.31 L 1018.88 1826.43 C 1018.87 1816.34 1018.26 1791.82 1019.48 1782.9 C 1021.85 1781.52 1025.93 1781.62 1028.82 1781.43 z"
     id="path39"
     transform="translate(0,0)" />
  <path
     transform="translate(0,0)"
     fill="rgb(1,61,164)"
     d="M 759.018 1385.14 C 783.572 1385.31 808.126 1385.33 832.68 1385.2 C 835.859 1385.22 840.137 1384.8 842.619 1386.38 C 843.977 1393.51 843.204 1432.2 843.166 1442.32 L 843.035 1516 C 842.963 1577.09 846.018 1604.54 803.97 1652.76 L 783.354 1652.66 L 745.733 1652.85 C 762.39 1631.39 786.772 1601.56 791.909 1574.9 C 793.515 1566.96 794.521 1558.91 794.917 1550.81 C 795.453 1540.42 796.32 1432.76 794.49 1430.04 L 789.214 1429.37 C 779.511 1429.17 769.065 1430.96 760.558 1428.47 C 758.124 1425.72 758.94 1426.16 758.743 1421.42 C 758.534 1409.32 758.626 1397.23 759.018 1385.14 z"
     id="path40" />
  <path
     transform="translate(0,0)"
     fill="rgb(1,61,164)"
     d="M 871.884 1385.33 C 882.377 1385.21 906.42 1384.45 916.028 1385.75 L 918.821 1386.68 C 919.546 1391.15 919.223 1403.15 919.216 1408.21 L 919.137 1451.58 L 919.194 1597.8 L 919.128 1608.87 L 960.137 1609.19 L 960.075 1652.5 C 933.3 1653.75 899.502 1652.79 871.963 1652.97 C 871.009 1564.55 871.625 1473.83 871.884 1385.33 z"
     id="path43" />
  <path
     transform="translate(0,0)"
     fill="rgb(1,61,164)"
     d="M 684.019 1385.35 C 697.113 1385.2 710.384 1385.31 723.494 1385.32 C 727.69 1385.72 728.09 1385.07 730.968 1387.17 C 731.949 1391.91 731.633 1407.62 731.648 1413.12 C 731.701 1433.43 731.601 1453.73 731.347 1474.03 C 731.164 1532.45 732.687 1594.93 731.372 1652.86 C 722.165 1652.95 692.787 1653.81 685.07 1651.96 C 683.484 1649.76 684.052 1651.01 684.123 1647.84 C 682.793 1622.41 683.862 1586.99 683.829 1561.07 L 684.019 1385.35 z"
     id="path45" />
  <path
     transform="translate(0,0)"
     fill="rgb(23,64,125)"
     d="M 723.494 1385.32 C 727.69 1385.72 728.09 1385.07 730.968 1387.17 C 731.949 1391.91 731.633 1407.62 731.648 1413.12 C 731.701 1433.43 731.601 1453.73 731.347 1474.03 C 731.164 1532.45 732.687 1594.93 731.372 1652.86 C 722.165 1652.95 692.787 1653.81 685.07 1651.96 C 683.484 1649.76 684.052 1651.01 684.123 1647.84 L 685.359 1647.38 L 686.437 1648.15 L 687.551 1647.44 L 688.676 1647.94 L 688.079 1648.49 L 687.69 1648.02 L 686.767 1648.01 L 686.411 1650.64 C 688.434 1651.42 721.164 1650.27 723.728 1649.53 C 722.39 1647.93 722.531 1648.1 721.352 1646.19 C 723.011 1643.09 726.093 1638.54 726.081 1635.08 C 726.03 1621.05 725.909 1607.03 725.892 1593 L 725.773 1501.51 C 725.707 1483.45 725.565 1465.39 725.427 1447.34 C 725.252 1424.36 728.166 1408.06 723.494 1385.32 z"
     id="path46" />
  <path
     transform="translate(0,0)"
     fill="rgb(23,64,125)"
     d="M 955.916 1769.51 L 971.87 1769.57 L 971.749 1781.75 C 970.78 1824.35 971.664 1869.18 971.135 1912.28 C 954.235 1916.43 936.873 1918.39 919.474 1918.11 C 874.806 1917.04 861.115 1896.7 862.943 1854.03 C 864.113 1826.69 862.184 1797.2 863.185 1769.47 L 878.869 1769.49 C 878.521 1802.98 878.023 1836.55 878.686 1870.03 C 879.543 1913.27 926.765 1905.02 955.943 1902.61 L 955.916 1769.51 z"
     id="path47" />
  <path
     transform="translate(0,0)"
     fill="rgb(23,64,125)"
     d="M 814.511 1769.45 L 828.7 1769.74 C 828.388 1791.36 831.264 1885.8 825.232 1899.05 C 821.502 1907.26 814.8 1913.03 806.308 1915.92 C 793.193 1920.39 779.809 1918.02 767.706 1912.04 C 764.789 1910.22 761.959 1907.53 759.339 1905.22 C 759.896 1900.57 759.943 1894.95 760.11 1890.19 C 845.263 1962.01 800.631 1785.03 814.511 1769.45 z"
     id="path48" />
</svg>
